<svg xmlns="http://www.w3.org/2000/svg" viewBox="0 0 100 100" width="100%" height="100%">
    <!-- Peacock (मोर) -->
    <!-- Tail Feather Fan Background -->
    <path d="M 12 50 C 14 20 40 10 50 10 C 60 10 86 20 88 50 C 88 74 74 80 50 80 C 26 80 12 74 12 50 Z" fill="#0d9488" />
    <!-- Eyes of feathers -->
    <circle cx="30" cy="28" r="6" fill="#0284c7" />
    <circle cx="30" cy="28" r="3" fill="#facc15" />
    <circle cx="50" cy="20" r="7" fill="#0284c7" />
    <circle cx="50" cy="20" r="3.5" fill="#facc15" />
    <circle cx="70" cy="28" r="6" fill="#0284c7" />
    <circle cx="70" cy="28" r="3" fill="#facc15" />
    <circle cx="22" cy="46" r="5" fill="#0284c7" />
    <circle cx="22" cy="46" r="2.5" fill="#facc15" />
    <circle cx="78" cy="46" r="5" fill="#0284c7" />
    <circle cx="78" cy="46" r="2.5" fill="#facc15" />
    <!-- Crest -->
    <line x1="48" y1="36" x2="44" y2="28" stroke="#0369a1" stroke-width="2" />
    <line x1="50" y1="36" x2="50" y2="27" stroke="#0369a1" stroke-width="2" />
    <line x1="52" y1="36" x2="56" y2="28" stroke="#0369a1" stroke-width="2" />
    <circle cx="44" cy="27" r="2" fill="#38bdf8" />
    <circle cx="50" cy="26" r="2" fill="#38bdf8" />
    <circle cx="56" cy="27" r="2" fill="#38bdf8" />
    <!-- Peacock Body (Royal Blue) -->
    <path d="M 44 44 C 44 36 56 36 56 44 C 56 52 58 64 54 78 L 46 78 C 42 64 44 52 44 44 Z" fill="#1d4ed8" />
    <!-- Eye & Beak -->
    <circle cx="47" cy="40" r="2" fill="#ffffff" />
    <circle cx="47" cy="40" r="1.2" fill="#0f172a" />
    <polygon points="44,42 36,44 44,46" fill="#f59e0b" />
  </svg>